<mxfile host="Electron" agent="Mozilla/5.0 (Macintosh; Intel Mac OS X 10_15_7) AppleWebKit/537.36 (KHTML, like Gecko) draw.io/26.2.2 Chrome/134.0.6998.178 Electron/35.1.2 Safari/537.36" version="26.2.2">
  <diagram name="Page-1" id="JLv6C9EqE7UBVmd0dTlQ">
    <mxGraphModel dx="2040" dy="2654" grid="1" gridSize="10" guides="1" tooltips="1" connect="1" arrows="1" fold="1" page="1" pageScale="1" pageWidth="850" pageHeight="1100" math="0" shadow="0">
      <root>
        <mxCell id="0" />
        <mxCell id="1" parent="0" />
        <mxCell id="umdlKsXgAAhOEnmNzOAw-1" value="Manager" style="whiteSpace=wrap;html=1;align=center;" parent="1" vertex="1">
          <mxGeometry x="160" y="-570" width="100" height="40" as="geometry" />
        </mxCell>
        <mxCell id="umdlKsXgAAhOEnmNzOAw-2" value="Driver" style="whiteSpace=wrap;html=1;align=center;" parent="1" vertex="1">
          <mxGeometry x="1310" y="-930" width="100" height="40" as="geometry" />
        </mxCell>
        <mxCell id="umdlKsXgAAhOEnmNzOAw-3" value="CreditCard" style="whiteSpace=wrap;html=1;align=center;" parent="1" vertex="1">
          <mxGeometry x="170" y="-260" width="100" height="40" as="geometry" />
        </mxCell>
        <mxCell id="umdlKsXgAAhOEnmNzOAw-4" value="" style="edgeStyle=none;shape=connector;rounded=0;orthogonalLoop=1;jettySize=auto;html=1;strokeColor=default;align=center;verticalAlign=middle;fontFamily=Helvetica;fontSize=11;fontColor=default;labelBackgroundColor=default;startFill=0;endArrow=none;" parent="1" source="umdlKsXgAAhOEnmNzOAw-5" target="umdlKsXgAAhOEnmNzOAw-69" edge="1">
          <mxGeometry relative="1" as="geometry">
            <mxPoint x="742.3999152002543" y="-679.4000211999364" as="targetPoint" />
          </mxGeometry>
        </mxCell>
        <mxCell id="umdlKsXgAAhOEnmNzOAw-5" value="Client" style="whiteSpace=wrap;html=1;align=center;" parent="1" vertex="1">
          <mxGeometry x="810" y="-670" width="100" height="40" as="geometry" />
        </mxCell>
        <mxCell id="umdlKsXgAAhOEnmNzOAw-6" value="Rent" style="whiteSpace=wrap;html=1;align=center;" parent="1" vertex="1">
          <mxGeometry x="320" y="-770" width="100" height="40" as="geometry" />
        </mxCell>
        <mxCell id="umdlKsXgAAhOEnmNzOAw-7" value="Model" style="whiteSpace=wrap;html=1;align=center;" parent="1" vertex="1">
          <mxGeometry x="910" y="-200" width="100" height="40" as="geometry" />
        </mxCell>
        <mxCell id="umdlKsXgAAhOEnmNzOAw-8" value="Car" style="whiteSpace=wrap;html=1;align=center;" parent="1" vertex="1">
          <mxGeometry x="1400" y="-200" width="100" height="40" as="geometry" />
        </mxCell>
        <mxCell id="umdlKsXgAAhOEnmNzOAw-9" value="Review" style="whiteSpace=wrap;html=1;align=center;" parent="1" vertex="1">
          <mxGeometry x="1360" y="-630" width="100" height="40" as="geometry" />
        </mxCell>
        <mxCell id="umdlKsXgAAhOEnmNzOAw-10" style="rounded=0;orthogonalLoop=1;jettySize=auto;html=1;endArrow=none;startFill=0;" parent="1" source="umdlKsXgAAhOEnmNzOAw-11" target="umdlKsXgAAhOEnmNzOAw-1" edge="1">
          <mxGeometry relative="1" as="geometry" />
        </mxCell>
        <mxCell id="umdlKsXgAAhOEnmNzOAw-11" value="ssn" style="ellipse;whiteSpace=wrap;html=1;align=center;fontStyle=4;" parent="1" vertex="1">
          <mxGeometry x="50" y="-640" width="100" height="40" as="geometry" />
        </mxCell>
        <mxCell id="umdlKsXgAAhOEnmNzOAw-12" style="rounded=0;orthogonalLoop=1;jettySize=auto;html=1;endArrow=none;startFill=0;" parent="1" source="umdlKsXgAAhOEnmNzOAw-13" target="umdlKsXgAAhOEnmNzOAw-1" edge="1">
          <mxGeometry relative="1" as="geometry" />
        </mxCell>
        <mxCell id="umdlKsXgAAhOEnmNzOAw-13" value="name" style="ellipse;whiteSpace=wrap;html=1;align=center;" parent="1" vertex="1">
          <mxGeometry x="170" y="-640" width="100" height="40" as="geometry" />
        </mxCell>
        <mxCell id="umdlKsXgAAhOEnmNzOAw-14" style="rounded=0;orthogonalLoop=1;jettySize=auto;html=1;entryX=0.75;entryY=0;entryDx=0;entryDy=0;endArrow=none;startFill=0;" parent="1" source="umdlKsXgAAhOEnmNzOAw-15" target="umdlKsXgAAhOEnmNzOAw-1" edge="1">
          <mxGeometry relative="1" as="geometry" />
        </mxCell>
        <mxCell id="umdlKsXgAAhOEnmNzOAw-15" value="email&lt;span style=&quot;color: rgba(0, 0, 0, 0); font-family: monospace; font-size: 0px; text-align: start; text-wrap-mode: nowrap;&quot;&gt;%3CmxGraphModel%3E%3Croot%3E%3CmxCell%20id%3D%220%22%2F%3E%3CmxCell%20id%3D%221%22%20parent%3D%220%22%2F%3E%3CmxCell%20id%3D%222%22%20value%3D%22name%22%20style%3D%22ellipse%3BwhiteSpace%3Dwrap%3Bhtml%3D1%3Balign%3Dcenter%3B%22%20vertex%3D%221%22%20parent%3D%221%22%3E%3CmxGeometry%20x%3D%22190%22%20y%3D%2280%22%20width%3D%22100%22%20height%3D%2240%22%20as%3D%22geometry%22%2F%3E%3C%2FmxCell%3E%3C%2Froot%3E%3C%2FmxGraphModel%3E&lt;/span&gt;" style="ellipse;whiteSpace=wrap;html=1;align=center;" parent="1" vertex="1">
          <mxGeometry x="280" y="-640" width="100" height="40" as="geometry" />
        </mxCell>
        <mxCell id="umdlKsXgAAhOEnmNzOAw-16" style="rounded=0;orthogonalLoop=1;jettySize=auto;html=1;entryX=0.5;entryY=0;entryDx=0;entryDy=0;endArrow=none;startFill=0;" parent="1" source="umdlKsXgAAhOEnmNzOAw-17" target="umdlKsXgAAhOEnmNzOAw-5" edge="1">
          <mxGeometry relative="1" as="geometry" />
        </mxCell>
        <mxCell id="umdlKsXgAAhOEnmNzOAw-17" value="email" style="ellipse;whiteSpace=wrap;html=1;align=center;fontStyle=4;" parent="1" vertex="1">
          <mxGeometry x="760" y="-750" width="100" height="40" as="geometry" />
        </mxCell>
        <mxCell id="umdlKsXgAAhOEnmNzOAw-18" style="rounded=0;orthogonalLoop=1;jettySize=auto;html=1;entryX=0.75;entryY=0;entryDx=0;entryDy=0;endArrow=none;startFill=0;" parent="1" source="umdlKsXgAAhOEnmNzOAw-19" target="umdlKsXgAAhOEnmNzOAw-5" edge="1">
          <mxGeometry relative="1" as="geometry" />
        </mxCell>
        <mxCell id="umdlKsXgAAhOEnmNzOAw-19" value="name" style="ellipse;whiteSpace=wrap;html=1;align=center;" parent="1" vertex="1">
          <mxGeometry x="880" y="-750" width="100" height="40" as="geometry" />
        </mxCell>
        <mxCell id="umdlKsXgAAhOEnmNzOAw-20" style="rounded=0;orthogonalLoop=1;jettySize=auto;html=1;entryX=0.5;entryY=0;entryDx=0;entryDy=0;endArrow=none;startFill=0;" parent="1" source="umdlKsXgAAhOEnmNzOAw-21" target="umdlKsXgAAhOEnmNzOAw-8" edge="1">
          <mxGeometry relative="1" as="geometry" />
        </mxCell>
        <mxCell id="umdlKsXgAAhOEnmNzOAw-21" value="brand" style="ellipse;whiteSpace=wrap;html=1;align=center;" parent="1" vertex="1">
          <mxGeometry x="1330" y="-260" width="100" height="40" as="geometry" />
        </mxCell>
        <mxCell id="umdlKsXgAAhOEnmNzOAw-22" value="name" style="ellipse;whiteSpace=wrap;html=1;align=center;fontStyle=4;" parent="1" vertex="1">
          <mxGeometry x="1220" y="-1010" width="100" height="40" as="geometry" />
        </mxCell>
        <mxCell id="umdlKsXgAAhOEnmNzOAw-23" style="rounded=0;orthogonalLoop=1;jettySize=auto;html=1;entryX=0.5;entryY=0;entryDx=0;entryDy=0;endArrow=none;startFill=0;" parent="1" source="umdlKsXgAAhOEnmNzOAw-22" target="umdlKsXgAAhOEnmNzOAw-2" edge="1">
          <mxGeometry relative="1" as="geometry" />
        </mxCell>
        <mxCell id="umdlKsXgAAhOEnmNzOAw-24" style="rounded=0;orthogonalLoop=1;jettySize=auto;html=1;entryX=0.75;entryY=0;entryDx=0;entryDy=0;endArrow=none;startFill=0;" parent="1" source="umdlKsXgAAhOEnmNzOAw-25" target="umdlKsXgAAhOEnmNzOAw-8" edge="1">
          <mxGeometry relative="1" as="geometry" />
        </mxCell>
        <mxCell id="umdlKsXgAAhOEnmNzOAw-25" value="carid" style="ellipse;whiteSpace=wrap;html=1;align=center;fontStyle=4;" parent="1" vertex="1">
          <mxGeometry x="1470" y="-260" width="100" height="40" as="geometry" />
        </mxCell>
        <mxCell id="umdlKsXgAAhOEnmNzOAw-26" style="rounded=0;orthogonalLoop=1;jettySize=auto;html=1;endArrow=none;startFill=0;" parent="1" source="umdlKsXgAAhOEnmNzOAw-27" target="umdlKsXgAAhOEnmNzOAw-5" edge="1">
          <mxGeometry relative="1" as="geometry" />
        </mxCell>
        <mxCell id="umdlKsXgAAhOEnmNzOAw-27" value="address" style="ellipse;shape=doubleEllipse;margin=3;whiteSpace=wrap;html=1;align=center;" parent="1" vertex="1">
          <mxGeometry x="990" y="-720" width="100" height="40" as="geometry" />
        </mxCell>
        <mxCell id="umdlKsXgAAhOEnmNzOAw-28" style="rounded=0;orthogonalLoop=1;jettySize=auto;html=1;endArrow=none;startFill=0;" parent="1" source="umdlKsXgAAhOEnmNzOAw-29" target="umdlKsXgAAhOEnmNzOAw-27" edge="1">
          <mxGeometry relative="1" as="geometry" />
        </mxCell>
        <mxCell id="umdlKsXgAAhOEnmNzOAw-29" value="city" style="ellipse;whiteSpace=wrap;html=1;align=center;" parent="1" vertex="1">
          <mxGeometry x="1090" y="-810" width="100" height="40" as="geometry" />
        </mxCell>
        <mxCell id="umdlKsXgAAhOEnmNzOAw-30" style="rounded=0;orthogonalLoop=1;jettySize=auto;html=1;endArrow=none;startFill=0;" parent="1" source="umdlKsXgAAhOEnmNzOAw-31" target="umdlKsXgAAhOEnmNzOAw-27" edge="1">
          <mxGeometry relative="1" as="geometry" />
        </mxCell>
        <mxCell id="umdlKsXgAAhOEnmNzOAw-31" value="number" style="ellipse;whiteSpace=wrap;html=1;align=center;" parent="1" vertex="1">
          <mxGeometry x="990" y="-850" width="100" height="40" as="geometry" />
        </mxCell>
        <mxCell id="umdlKsXgAAhOEnmNzOAw-32" style="rounded=0;orthogonalLoop=1;jettySize=auto;html=1;endArrow=none;startFill=0;" parent="1" source="umdlKsXgAAhOEnmNzOAw-33" target="umdlKsXgAAhOEnmNzOAw-27" edge="1">
          <mxGeometry relative="1" as="geometry" />
        </mxCell>
        <mxCell id="umdlKsXgAAhOEnmNzOAw-33" value="&lt;p style=&quot;margin: 0px; font-variant-numeric: normal; font-variant-east-asian: normal; font-variant-alternates: normal; font-size-adjust: none; font-kerning: auto; font-optical-sizing: auto; font-feature-settings: normal; font-variation-settings: normal; font-variant-position: normal; font-variant-emoji: normal; font-stretch: normal; font-size: 10.9px; line-height: normal; text-align: start;&quot; class=&quot;p1&quot;&gt;name of the road&lt;/p&gt;" style="ellipse;whiteSpace=wrap;html=1;align=center;" parent="1" vertex="1">
          <mxGeometry x="910" y="-810" width="100" height="40" as="geometry" />
        </mxCell>
        <mxCell id="umdlKsXgAAhOEnmNzOAw-34" style="rounded=0;orthogonalLoop=1;jettySize=auto;html=1;endArrow=none;startFill=0;" parent="1" source="umdlKsXgAAhOEnmNzOAw-35" target="umdlKsXgAAhOEnmNzOAw-2" edge="1">
          <mxGeometry relative="1" as="geometry">
            <mxPoint x="1440" y="-904" as="targetPoint" />
          </mxGeometry>
        </mxCell>
        <mxCell id="umdlKsXgAAhOEnmNzOAw-35" value="address" style="ellipse;shape=doubleEllipse;margin=3;whiteSpace=wrap;html=1;align=center;" parent="1" vertex="1">
          <mxGeometry x="1345" y="-1000" width="100" height="40" as="geometry" />
        </mxCell>
        <mxCell id="umdlKsXgAAhOEnmNzOAw-36" style="rounded=0;orthogonalLoop=1;jettySize=auto;html=1;endArrow=none;startFill=0;" parent="1" source="umdlKsXgAAhOEnmNzOAw-37" target="umdlKsXgAAhOEnmNzOAw-35" edge="1">
          <mxGeometry relative="1" as="geometry" />
        </mxCell>
        <mxCell id="umdlKsXgAAhOEnmNzOAw-37" value="city" style="ellipse;whiteSpace=wrap;html=1;align=center;" parent="1" vertex="1">
          <mxGeometry x="1520" y="-1050" width="100" height="40" as="geometry" />
        </mxCell>
        <mxCell id="umdlKsXgAAhOEnmNzOAw-38" style="rounded=0;orthogonalLoop=1;jettySize=auto;html=1;endArrow=none;startFill=0;" parent="1" source="umdlKsXgAAhOEnmNzOAw-39" target="umdlKsXgAAhOEnmNzOAw-35" edge="1">
          <mxGeometry relative="1" as="geometry" />
        </mxCell>
        <mxCell id="umdlKsXgAAhOEnmNzOAw-39" value="number" style="ellipse;whiteSpace=wrap;html=1;align=center;" parent="1" vertex="1">
          <mxGeometry x="1410" y="-1060" width="100" height="40" as="geometry" />
        </mxCell>
        <mxCell id="umdlKsXgAAhOEnmNzOAw-40" style="rounded=0;orthogonalLoop=1;jettySize=auto;html=1;endArrow=none;startFill=0;" parent="1" source="umdlKsXgAAhOEnmNzOAw-41" target="umdlKsXgAAhOEnmNzOAw-35" edge="1">
          <mxGeometry relative="1" as="geometry" />
        </mxCell>
        <mxCell id="umdlKsXgAAhOEnmNzOAw-41" value="&lt;p style=&quot;margin: 0px; font-variant-numeric: normal; font-variant-east-asian: normal; font-variant-alternates: normal; font-size-adjust: none; font-kerning: auto; font-optical-sizing: auto; font-feature-settings: normal; font-variation-settings: normal; font-variant-position: normal; font-variant-emoji: normal; font-stretch: normal; font-size: 10.9px; line-height: normal; text-align: start;&quot; class=&quot;p1&quot;&gt;name of the road&lt;/p&gt;" style="ellipse;whiteSpace=wrap;html=1;align=center;" parent="1" vertex="1">
          <mxGeometry x="1300" y="-1060" width="100" height="40" as="geometry" />
        </mxCell>
        <mxCell id="umdlKsXgAAhOEnmNzOAw-42" style="rounded=0;orthogonalLoop=1;jettySize=auto;html=1;endArrow=none;startFill=0;" parent="1" source="umdlKsXgAAhOEnmNzOAw-43" target="umdlKsXgAAhOEnmNzOAw-6" edge="1">
          <mxGeometry relative="1" as="geometry">
            <mxPoint x="350" y="-800" as="targetPoint" />
          </mxGeometry>
        </mxCell>
        <mxCell id="umdlKsXgAAhOEnmNzOAw-43" value="date" style="ellipse;whiteSpace=wrap;html=1;align=center;" parent="1" vertex="1">
          <mxGeometry x="230" y="-860" width="100" height="40" as="geometry" />
        </mxCell>
        <mxCell id="umdlKsXgAAhOEnmNzOAw-44" style="rounded=0;orthogonalLoop=1;jettySize=auto;html=1;endArrow=none;startFill=0;" parent="1" source="umdlKsXgAAhOEnmNzOAw-45" target="umdlKsXgAAhOEnmNzOAw-6" edge="1">
          <mxGeometry relative="1" as="geometry">
            <mxPoint x="375" y="-800" as="targetPoint" />
          </mxGeometry>
        </mxCell>
        <mxCell id="umdlKsXgAAhOEnmNzOAw-45" value="rentid" style="ellipse;whiteSpace=wrap;html=1;align=center;fontStyle=4;" parent="1" vertex="1">
          <mxGeometry x="370" y="-860" width="100" height="40" as="geometry" />
        </mxCell>
        <mxCell id="umdlKsXgAAhOEnmNzOAw-46" style="edgeStyle=none;shape=connector;rounded=0;orthogonalLoop=1;jettySize=auto;html=1;strokeColor=default;align=center;verticalAlign=middle;fontFamily=Helvetica;fontSize=11;fontColor=default;labelBackgroundColor=default;startFill=0;endArrow=none;" parent="1" source="umdlKsXgAAhOEnmNzOAw-78" target="umdlKsXgAAhOEnmNzOAw-3" edge="1">
          <mxGeometry relative="1" as="geometry">
            <mxPoint x="150.51823386644992" y="-301.7615698964887" as="sourcePoint" />
          </mxGeometry>
        </mxCell>
        <mxCell id="umdlKsXgAAhOEnmNzOAw-55" style="rounded=0;orthogonalLoop=1;jettySize=auto;html=1;endArrow=none;startFill=0;" parent="1" source="umdlKsXgAAhOEnmNzOAw-62" target="umdlKsXgAAhOEnmNzOAw-3" edge="1">
          <mxGeometry relative="1" as="geometry">
            <mxPoint x="250" y="-274" as="targetPoint" />
          </mxGeometry>
        </mxCell>
        <mxCell id="umdlKsXgAAhOEnmNzOAw-56" style="rounded=0;orthogonalLoop=1;jettySize=auto;html=1;endArrow=none;startFill=0;" parent="1" source="umdlKsXgAAhOEnmNzOAw-57" target="umdlKsXgAAhOEnmNzOAw-62" edge="1">
          <mxGeometry relative="1" as="geometry">
            <mxPoint x="400.30692330267243" y="-328.27623097240553" as="targetPoint" />
          </mxGeometry>
        </mxCell>
        <mxCell id="umdlKsXgAAhOEnmNzOAw-57" value="city" style="ellipse;whiteSpace=wrap;html=1;align=center;" parent="1" vertex="1">
          <mxGeometry x="320" y="-410" width="100" height="40" as="geometry" />
        </mxCell>
        <mxCell id="umdlKsXgAAhOEnmNzOAw-58" style="rounded=0;orthogonalLoop=1;jettySize=auto;html=1;endArrow=none;startFill=0;" parent="1" source="umdlKsXgAAhOEnmNzOAw-59" target="umdlKsXgAAhOEnmNzOAw-62" edge="1">
          <mxGeometry relative="1" as="geometry">
            <mxPoint x="380" y="-330.0000000000002" as="targetPoint" />
          </mxGeometry>
        </mxCell>
        <mxCell id="umdlKsXgAAhOEnmNzOAw-59" value="number" style="ellipse;whiteSpace=wrap;html=1;align=center;" parent="1" vertex="1">
          <mxGeometry x="240" y="-450" width="100" height="40" as="geometry" />
        </mxCell>
        <mxCell id="umdlKsXgAAhOEnmNzOAw-60" style="rounded=0;orthogonalLoop=1;jettySize=auto;html=1;endArrow=none;startFill=0;" parent="1" source="umdlKsXgAAhOEnmNzOAw-61" target="umdlKsXgAAhOEnmNzOAw-62" edge="1">
          <mxGeometry relative="1" as="geometry">
            <mxPoint x="363.2495166172596" y="-328.844293805583" as="targetPoint" />
          </mxGeometry>
        </mxCell>
        <mxCell id="umdlKsXgAAhOEnmNzOAw-61" value="&lt;p style=&quot;margin: 0px; font-variant-numeric: normal; font-variant-east-asian: normal; font-variant-alternates: normal; font-size-adjust: none; font-kerning: auto; font-optical-sizing: auto; font-feature-settings: normal; font-variation-settings: normal; font-variant-position: normal; font-variant-emoji: normal; font-stretch: normal; font-size: 10.9px; line-height: normal; text-align: start;&quot; class=&quot;p1&quot;&gt;name of the road&lt;/p&gt;" style="ellipse;whiteSpace=wrap;html=1;align=center;" parent="1" vertex="1">
          <mxGeometry x="140" y="-420" width="100" height="40" as="geometry" />
        </mxCell>
        <mxCell id="umdlKsXgAAhOEnmNzOAw-62" value="address" style="ellipse;whiteSpace=wrap;html=1;align=center;fontFamily=Helvetica;fontSize=11;fontColor=default;labelBackgroundColor=default;" parent="1" vertex="1">
          <mxGeometry x="220" y="-340" width="100" height="40" as="geometry" />
        </mxCell>
        <mxCell id="umdlKsXgAAhOEnmNzOAw-63" style="edgeStyle=none;shape=connector;rounded=0;orthogonalLoop=1;jettySize=auto;html=1;strokeColor=default;align=center;verticalAlign=middle;fontFamily=Helvetica;fontSize=11;fontColor=default;labelBackgroundColor=default;startFill=0;endArrow=none;" parent="1" source="umdlKsXgAAhOEnmNzOAw-64" target="umdlKsXgAAhOEnmNzOAw-9" edge="1">
          <mxGeometry relative="1" as="geometry" />
        </mxCell>
        <mxCell id="umdlKsXgAAhOEnmNzOAw-64" value="reviewid" style="ellipse;whiteSpace=wrap;html=1;align=center;fontStyle=4;fontFamily=Helvetica;fontSize=11;fontColor=default;labelBackgroundColor=default;" parent="1" vertex="1">
          <mxGeometry x="1300" y="-710" width="100" height="40" as="geometry" />
        </mxCell>
        <mxCell id="umdlKsXgAAhOEnmNzOAw-65" style="edgeStyle=none;shape=connector;rounded=0;orthogonalLoop=1;jettySize=auto;html=1;strokeColor=default;align=center;verticalAlign=middle;fontFamily=Helvetica;fontSize=11;fontColor=default;labelBackgroundColor=default;startFill=0;endArrow=none;" parent="1" source="umdlKsXgAAhOEnmNzOAw-66" target="umdlKsXgAAhOEnmNzOAw-9" edge="1">
          <mxGeometry relative="1" as="geometry" />
        </mxCell>
        <mxCell id="umdlKsXgAAhOEnmNzOAw-66" value="message" style="ellipse;whiteSpace=wrap;html=1;align=center;fontFamily=Helvetica;fontSize=11;fontColor=default;labelBackgroundColor=default;" parent="1" vertex="1">
          <mxGeometry x="1410" y="-710" width="100" height="40" as="geometry" />
        </mxCell>
        <mxCell id="umdlKsXgAAhOEnmNzOAw-67" style="edgeStyle=none;shape=connector;rounded=0;orthogonalLoop=1;jettySize=auto;html=1;strokeColor=default;align=center;verticalAlign=middle;fontFamily=Helvetica;fontSize=11;fontColor=default;labelBackgroundColor=default;startFill=0;endArrow=none;" parent="1" source="umdlKsXgAAhOEnmNzOAw-68" target="umdlKsXgAAhOEnmNzOAw-9" edge="1">
          <mxGeometry relative="1" as="geometry" />
        </mxCell>
        <mxCell id="umdlKsXgAAhOEnmNzOAw-68" value="rating" style="ellipse;whiteSpace=wrap;html=1;align=center;fontFamily=Helvetica;fontSize=11;fontColor=default;labelBackgroundColor=default;" parent="1" vertex="1">
          <mxGeometry x="1520" y="-710" width="100" height="40" as="geometry" />
        </mxCell>
        <mxCell id="umdlKsXgAAhOEnmNzOAw-69" value="&lt;meta charset=&quot;utf-8&quot;&gt;&lt;span style=&quot;color: rgb(0, 0, 0); font-family: Helvetica; font-size: 11px; font-style: normal; font-variant-ligatures: normal; font-variant-caps: normal; font-weight: 400; letter-spacing: normal; orphans: 2; text-align: center; text-indent: 0px; text-transform: none; widows: 2; word-spacing: 0px; -webkit-text-stroke-width: 0px; white-space: normal; background-color: rgb(255, 255, 255); text-decoration-thickness: initial; text-decoration-style: initial; text-decoration-color: initial; display: inline !important; float: none;&quot;&gt;credit card&lt;/span&gt;" style="ellipse;shape=doubleEllipse;margin=3;whiteSpace=wrap;html=1;align=center;fontFamily=Helvetica;fontSize=11;fontColor=default;labelBackgroundColor=default;" parent="1" vertex="1">
          <mxGeometry x="640" y="-710" width="100" height="40" as="geometry" />
        </mxCell>
        <mxCell id="umdlKsXgAAhOEnmNzOAw-70" style="edgeStyle=none;shape=connector;rounded=0;orthogonalLoop=1;jettySize=auto;html=1;strokeColor=default;align=center;verticalAlign=middle;fontFamily=Helvetica;fontSize=11;fontColor=default;labelBackgroundColor=default;startFill=0;endArrow=none;" parent="1" source="umdlKsXgAAhOEnmNzOAw-71" target="umdlKsXgAAhOEnmNzOAw-7" edge="1">
          <mxGeometry relative="1" as="geometry" />
        </mxCell>
        <mxCell id="umdlKsXgAAhOEnmNzOAw-71" value="model_id" style="ellipse;whiteSpace=wrap;html=1;align=center;fontStyle=4;fontFamily=Helvetica;fontSize=11;fontColor=default;labelBackgroundColor=default;" parent="1" vertex="1">
          <mxGeometry x="800" y="-270" width="100" height="40" as="geometry" />
        </mxCell>
        <mxCell id="umdlKsXgAAhOEnmNzOAw-72" style="edgeStyle=none;shape=connector;rounded=0;orthogonalLoop=1;jettySize=auto;html=1;strokeColor=default;align=center;verticalAlign=middle;fontFamily=Helvetica;fontSize=11;fontColor=default;labelBackgroundColor=default;startFill=0;endArrow=none;" parent="1" source="umdlKsXgAAhOEnmNzOAw-73" target="umdlKsXgAAhOEnmNzOAw-7" edge="1">
          <mxGeometry relative="1" as="geometry" />
        </mxCell>
        <mxCell id="umdlKsXgAAhOEnmNzOAw-73" value="year" style="ellipse;whiteSpace=wrap;html=1;align=center;fontFamily=Helvetica;fontSize=11;fontColor=default;labelBackgroundColor=default;" parent="1" vertex="1">
          <mxGeometry x="1090" y="-240" width="100" height="40" as="geometry" />
        </mxCell>
        <mxCell id="umdlKsXgAAhOEnmNzOAw-74" style="edgeStyle=none;shape=connector;rounded=0;orthogonalLoop=1;jettySize=auto;html=1;strokeColor=default;align=center;verticalAlign=middle;fontFamily=Helvetica;fontSize=11;fontColor=default;labelBackgroundColor=default;startFill=0;endArrow=none;" parent="1" source="umdlKsXgAAhOEnmNzOAw-75" target="umdlKsXgAAhOEnmNzOAw-7" edge="1">
          <mxGeometry relative="1" as="geometry" />
        </mxCell>
        <mxCell id="umdlKsXgAAhOEnmNzOAw-75" value="transmission" style="ellipse;whiteSpace=wrap;html=1;align=center;fontFamily=Helvetica;fontSize=11;fontColor=default;labelBackgroundColor=default;" parent="1" vertex="1">
          <mxGeometry x="1050" y="-300" width="100" height="40" as="geometry" />
        </mxCell>
        <mxCell id="umdlKsXgAAhOEnmNzOAw-76" style="edgeStyle=none;shape=connector;rounded=0;orthogonalLoop=1;jettySize=auto;html=1;strokeColor=default;align=center;verticalAlign=middle;fontFamily=Helvetica;fontSize=11;fontColor=default;labelBackgroundColor=default;startFill=0;endArrow=none;" parent="1" source="umdlKsXgAAhOEnmNzOAw-77" target="umdlKsXgAAhOEnmNzOAw-7" edge="1">
          <mxGeometry relative="1" as="geometry" />
        </mxCell>
        <mxCell id="umdlKsXgAAhOEnmNzOAw-77" value="color" style="ellipse;whiteSpace=wrap;html=1;align=center;fontFamily=Helvetica;fontSize=11;fontColor=default;labelBackgroundColor=default;" parent="1" vertex="1">
          <mxGeometry x="920" y="-290" width="100" height="40" as="geometry" />
        </mxCell>
        <mxCell id="umdlKsXgAAhOEnmNzOAw-78" value="&lt;span style=&quot;color: rgb(0, 0, 0); font-family: Helvetica; font-size: 11px; font-style: normal; font-variant-ligatures: normal; font-variant-caps: normal; font-weight: 400; letter-spacing: normal; orphans: 2; text-align: center; text-indent: 0px; text-transform: none; widows: 2; word-spacing: 0px; -webkit-text-stroke-width: 0px; white-space: normal; background-color: rgb(255, 255, 255); text-decoration-thickness: initial; text-decoration-style: initial; text-decoration-color: initial; display: inline !important; float: none;&quot;&gt;credit card number&lt;/span&gt;" style="ellipse;whiteSpace=wrap;html=1;align=center;fontStyle=4;fontFamily=Helvetica;fontSize=11;fontColor=default;labelBackgroundColor=default;" parent="1" vertex="1">
          <mxGeometry x="90" y="-350" width="100" height="40" as="geometry" />
        </mxCell>
        <mxCell id="rel-client-rent" value="Rents" style="rhombus;whiteSpace=wrap;html=1;fillColor=#FFF2CC;strokeColor=#D6B656;" vertex="1" parent="1">
          <mxGeometry x="620" y="-470" width="80" height="60" as="geometry" />
        </mxCell>
        <mxCell id="edge-client-to-rentRel" style="endArrow=none;" edge="1" parent="1" source="umdlKsXgAAhOEnmNzOAw-5" target="rel-client-rent">
          <mxGeometry relative="1" as="geometry">
            <mxPoint x="710.8571428571431" y="-616.8571428571427" as="targetPoint" />
          </mxGeometry>
        </mxCell>
        <mxCell id="edge-rentRel-to-rent" style="endArrow=none;" edge="1" parent="1" source="rel-client-rent" target="umdlKsXgAAhOEnmNzOAw-6">
          <mxGeometry relative="1" as="geometry" />
        </mxCell>
        <mxCell id="label-client-rent" value="1:N" style="text;html=1;strokeColor=none;fillColor=none;" vertex="1" parent="1">
          <mxGeometry x="650" y="-490" width="40" height="20" as="geometry" />
        </mxCell>
        <mxCell id="rel-driver-rent" value="Drives" style="rhombus;whiteSpace=wrap;html=1;fillColor=#FFF2CC;strokeColor=#D6B656;" vertex="1" parent="1">
          <mxGeometry x="810" y="-990" width="80" height="60" as="geometry" />
        </mxCell>
        <mxCell id="edge-driver-to-rentRel" style="endArrow=none;" edge="1" parent="1" source="umdlKsXgAAhOEnmNzOAw-2" target="rel-driver-rent">
          <mxGeometry relative="1" as="geometry" />
        </mxCell>
        <mxCell id="edge-rentRel-to-rent2" style="endArrow=none;" edge="1" parent="1" source="rel-driver-rent" target="umdlKsXgAAhOEnmNzOAw-6">
          <mxGeometry relative="1" as="geometry" />
        </mxCell>
        <mxCell id="label-driver-rent" value="1:N" style="text;html=1;strokeColor=none;fillColor=none;" vertex="1" parent="1">
          <mxGeometry x="840" y="-1010" width="40" height="20" as="geometry" />
        </mxCell>
        <mxCell id="rel-car-model" value="IsOfModel" style="rhombus;whiteSpace=wrap;html=1;fillColor=#FFF2CC;strokeColor=#D6B656;" vertex="1" parent="1">
          <mxGeometry x="1210" y="-150" width="80" height="60" as="geometry" />
        </mxCell>
        <mxCell id="edge-car-to-modelRel" style="endArrow=none;" edge="1" parent="1" source="umdlKsXgAAhOEnmNzOAw-8" target="rel-car-model">
          <mxGeometry relative="1" as="geometry" />
        </mxCell>
        <mxCell id="edge-modelRel-to-model" style="endArrow=none;" edge="1" parent="1" source="rel-car-model" target="umdlKsXgAAhOEnmNzOAw-7">
          <mxGeometry relative="1" as="geometry" />
        </mxCell>
        <mxCell id="label-car-model" value="M:1" style="text;html=1;strokeColor=none;fillColor=none;" vertex="1" parent="1">
          <mxGeometry x="1270" y="-170" width="40" height="20" as="geometry" />
        </mxCell>
        <mxCell id="rel-client-review" value="Writes" style="rhombus;whiteSpace=wrap;html=1;fillColor=#FFF2CC;strokeColor=#D6B656;" vertex="1" parent="1">
          <mxGeometry x="1150" y="-470" width="80" height="60" as="geometry" />
        </mxCell>
        <mxCell id="edge-client-to-reviewRel" style="endArrow=none;entryX=1;entryY=1;entryDx=0;entryDy=0;" edge="1" parent="1" source="umdlKsXgAAhOEnmNzOAw-5" target="rel-client-review">
          <mxGeometry relative="1" as="geometry">
            <mxPoint x="1175" y="-614" as="targetPoint" />
          </mxGeometry>
        </mxCell>
        <mxCell id="edge-reviewRel-to-review" style="endArrow=none;" edge="1" parent="1" source="rel-client-review" target="umdlKsXgAAhOEnmNzOAw-9">
          <mxGeometry relative="1" as="geometry" />
        </mxCell>
        <mxCell id="label-client-review" value="1:N" style="text;html=1;strokeColor=none;fillColor=none;" vertex="1" parent="1">
          <mxGeometry x="1180" y="-490" width="40" height="20" as="geometry" />
        </mxCell>
      </root>
    </mxGraphModel>
  </diagram>
</mxfile>
